Simulation
nRows=15
nColumns=15
endheader
time  TH_x TH_y TH_z SC_y  SC_z  SC_x  AC_y  AC_z  AC_x  GH_y  GH_z  GH_yy  EL_x  PS_y
0.0  0.000000  0.000000  0.000000  -21.481837363305974  5.049547332879065  0.3347068766571287  41.600972477383216  5.607387856950146  -8.24670552084419  87.94170866431148  9.329424257523641  -35.29619949936729  20.810609904719954  120.000000
0.04802000000000001  0.000000  0.000000  0.000000  -19.960826922726056  3.437404068859523  -0.7597463846760903  41.640075391308194  5.860773129046891  -8.641281824372397  65.77072325818054  9.783709568648355  -15.475116487236578  20.23666827317248  120.000000
0.09604000000000001  0.000000  0.000000  0.000000  -18.635795597777726  1.8399126278111861  -1.8925289577638202  41.675556891304865  5.932879654149317  -9.007074926817493  48.142530248101814  11.329098477813313  -0.25232906474809547  19.670577312224882  120.000000
0.14406000000000002  0.000000  0.000000  0.000000  -17.600258399296145  0.3835366371118054  -3.038486884609275  41.68370668782145  5.845562846502284  -9.267059141965682  35.709183954503104  13.493438852900338  9.593554884710533  19.0748151573654  120.000000
0.19208000000000003  0.000000  0.000000  0.000000  -16.837440165128807  -0.8238089374471408  -4.142020632301531  41.68068534890458  5.645840868108176  -9.352892022833853  26.882980884469486  15.905427190318036  15.544624861352307  18.4296615442707  120.000000
0.24010000000000004  0.000000  0.000000  0.000000  -16.27637587825926  -1.694776947856918  -5.131021256042523  41.690448528870924  5.397813577744747  -9.227072856503943  20.18691369876529  18.34947790949222  19.01020042255294  17.730701978970153  120.000000
0.28812000000000004  0.000000  0.000000  0.000000  -15.822420368465277  -2.162126312505597  -5.922266368310058  41.741445383689125  5.165302335032001  -8.88862348133868  14.718177549905231  20.699116323378924  20.871623489018766  16.990022953131618  120.000000
0.33614000000000005  0.000000  0.000000  0.000000  -15.39044882387881  -2.1733687863690174  -6.423700878704785  41.85654372465873  4.999029105796696  -8.365028805022765  9.95322874494757  22.86805549389159  21.674678651688584  16.228459116290914  120.000000
0.38416000000000006  0.000000  0.000000  0.000000  -14.9087301523145  -1.6990405646635365  -6.559105540259925  42.0377194193585  4.935867454853706  -7.690284208401572  5.542509491825586  24.790296743849314  21.837325840323416  15.470969406908004  120.000000
0.43218000000000006  0.000000  0.000000  0.000000  -14.343934781682565  -0.7504031644822178  -6.301140360684062  42.26402098069102  4.989414395140956  -6.893593265120357  1.2250175849571596  26.430902029612707  21.73166485474145  14.737804326369572  120.000000
0.48020000000000007  0.000000  0.000000  0.000000  -13.704316135959205  0.6298417979042604  -5.677193417265532  42.489416809767995  5.1421488488774285  -5.981088813810498  -3.191167935099137  27.79604887303683  21.69697283681219  14.04494053573482  120.000000
0.5282200000000001  0.000000  0.000000  0.000000  -13.027786994374647  2.3978731693224846  -4.738046128238593  42.66207901780549  5.344786564639813  -4.942662216409115  -7.803023832469243  28.94602837349352  21.998668038660146  13.40409468661325  120.000000
0.5762400000000001  0.000000  0.000000  0.000000  -12.368732632181791  4.514467246840427  -3.5309957109376184  42.729135560401616  5.535000256116994  -3.764010888984161  -12.602849766756275  29.99623267136559  22.79693274258988  12.818731097651161  120.000000
0.62426  0.000000  0.000000  0.000000  -11.800727044320636  6.955415116564822  -2.1030737281000147  42.643372992539284  5.6439288590572545  -2.4240825935754806  -17.465849444522494  31.090631849692112  24.11482597126286  12.282523844200169  120.000000
0.6722800000000001  0.000000  0.000000  0.000000  -11.420210543147912  9.709598733797794  -0.5001587428766263  42.375323714977874  5.596676421089796  -0.9022661488525535  -22.15178786073109  32.36223902265506  25.82414000718588  11.784844074086992  120.000000
